<?xml version="1.0" encoding="UTF-8"?>
<svg xmlns="http://www.w3.org/2000/svg" xmlns:xlink="http://www.w3.org/1999/xlink" viewBox="100 60 260 290">
  <defs>
    <linearGradient id="fg" x1="288.37" y1="302.05" x2="239.52" y2="147.77" gradientUnits="userSpaceOnUse">
      <stop offset="0" stop-color="#f9be1a"/>
      <stop offset=".29" stop-color="#f7b61a"/>
      <stop offset=".71" stop-color="#f4a31a"/>
      <stop offset="1" stop-color="#f2921a"/>
    </linearGradient>
    <clipPath id="circle-clip">
      <circle cx="230" cy="205" r="130"/>
    </clipPath>
  </defs>
  <!-- White circle background -->
  <circle cx="230" cy="205" r="130" fill="#ffffff"/>
  <!-- Green arc bottom -->
  <path fill="#12a24a" d="M308.7,256.53c-15.82,18.63-40.41,30.59-68.02,30.59-29.65,0-55.8-13.79-71.37-34.81-13.48-9.19-36.92-27-48.83-46.77,0,.05,0,.11,0,.16,0,62.18,52.95,112.58,118.26,112.58,42.1,0,79.06-20.95,100.01-52.49l-30.05-9.27Z"/>
  <!-- Blue arc top -->
  <path fill="#0b3c6d" d="M160.97,238.19c-4.32-9.5-6.71-19.93-6.71-30.88,0-44.08,38.69-79.82,86.41-79.82,18.98,0,36.53,5.66,50.79,15.24l34.38-13.14c-21.62-22.4-52.64-36.45-87.11-36.45-60.15,0-109.8,42.75-117.28,98.07,8.11,12.98,22.41,33.4,39.52,46.99Z"/>
  <!-- Rupee symbol (gold gradient) -->
  <path fill="url(#fg)" d="M188.88,170.88s9.76-15.44,13.25-16.31h106.03l-8.59,16.31h-36.7s5.97,5.68,6.55,11.94h27.23l-8.88,15.29h-18.06s2.04,22.72-35.97,28.98c22.57,21.7,45.29,45.29,45.29,45.29,0,0-9.03,4.08-24.03,4.51-4.51-3.64-55.63-52.58-55.63-52.58v-13.11l32.48.44s14.42-1.75,15.87-12.96c-5.39-.15-58.84-.87-58.84-.87l10.19-15,49.44.15s-2.84-9.32-17.55-11.94c-15,.29-42.09-.15-42.09-.15Z"/>
</svg>
