<?xml version="1.0" encoding="UTF-8"?>
<svg id="Layer_1" data-name="Layer 1" xmlns="http://www.w3.org/2000/svg" xmlns:xlink="http://www.w3.org/1999/xlink" viewBox="0 0 1089 411.43">
  <defs>
    <style>
      .cls-1, .cls-2 {
        fill: #0b3c6d;
      }

      .cls-2 {
        font-family: FONTSPRINGDEMO-WillgrayBBold, 'FONTSPRING DEMO - Willgray B';
        font-size: 33.34px;
        font-weight: 700;
      }

      .cls-3 {
        fill: #12a24a;
      }

      .cls-4 {
        fill: url(#linear-gradient);
      }
    </style>
    <linearGradient id="linear-gradient" x1="288.37" y1="302.05" x2="239.52" y2="147.77" gradientUnits="userSpaceOnUse">
      <stop offset="0" stop-color="#f9be1a"/>
      <stop offset=".29" stop-color="#f7b61a"/>
      <stop offset=".71" stop-color="#f4a31a"/>
      <stop offset="1" stop-color="#f2921a"/>
    </linearGradient>
  </defs>
  <path class="cls-1" d="M456.92,169.31h20.04l3.01,13.48h.35c2.31-7.27,10.46-15.78,24.47-15.78h4.26v23.59c-2.13-.89-5.85-1.42-8.69-1.42-10.64,0-20.39,7.8-20.39,20.93v47.88h-23.05v-88.67Z"/>
  <path class="cls-1" d="M583.72,228.31h23.94c-6.74,17.38-20.57,29.97-44.51,29.97-26.42,0-45.58-19.51-45.58-46.64s19.15-46.64,45.58-46.64,45.58,19.51,45.58,46.64v4.61h-68.1c.71,12.95,9.93,23.05,22.52,23.05,11.35,0,17.38-5.67,20.57-11ZM563.15,182.38c-11,0-20.57,7.63-22.52,19.51h45.04c-1.95-11.88-11.53-19.51-22.52-19.51Z"/>
  <path class="cls-1" d="M719.02,132.84v124.14h-23.05v-10.99c-7.8,8.51-18.44,13.3-30.86,13.3-25.01,0-42.92-19.51-42.92-46.64s17.91-46.64,42.92-46.64c12.59,0,23.23,4.79,30.86,13.12v-46.29h23.05ZM670.61,186.93c-14.54,0-25.36,11.17-25.36,25.71s10.82,25.71,25.36,25.71,25.36-11.17,25.36-25.71-10.82-25.71-25.36-25.71Z"/>
  <path class="cls-1" d="M751.83,127.81c7.63,0,13.3,5.5,13.3,13.3s-5.67,13.3-13.3,13.3-13.3-5.5-13.3-13.3,5.67-13.3,13.3-13.3ZM740.31,169.31h23.05v88.67h-23.05v-88.67Z"/>
  <path class="cls-1" d="M828.8,258.28c-21.99,0-34.76-14.72-34.76-36v-33.52h-17.38v-20.46h17.38v-26.6h23.05v26.6h30.86v20.46h-30.86v31.92c0,11.88,6.03,16.67,16.49,16.67,4.97,0,9.93-1.06,14.36-2.66v20.22c-6.74,2.31-12.77,3.37-19.15,3.37Z"/>
  <path class="cls-1" d="M941.2,165.89h23.94v41.85c0,22.17-12.24,50.54-52.85,50.54s-46.61-28.37-46.61-50.54v-41.85h23.94v40.61c0,14.19,2.64,30.7,24.92,30.84,23.72.15,26.65-16.66,26.65-30.84v-40.61Z"/>
  <text class="cls-2" transform="translate(973.14 144.39)"><tspan x="0" y="0">TM</tspan></text>
  <path class="cls-3" d="M308.7,256.53c-15.82,18.63-40.41,30.59-68.02,30.59-29.65,0-55.8-13.79-71.37-34.81-13.48-9.19-36.92-27-48.83-46.77,0,.05,0,.11,0,.16,0,62.18,52.95,112.58,118.26,112.58,42.1,0,79.06-20.95,100.01-52.49l-30.05-9.27Z"/>
  <path class="cls-1" d="M160.97,238.19c-4.32-9.5-6.71-19.93-6.71-30.88,0-44.08,38.69-79.82,86.41-79.82,18.98,0,36.53,5.66,50.79,15.24l34.38-13.14c-21.62-22.4-52.64-36.45-87.11-36.45-60.15,0-109.8,42.75-117.28,98.07,8.11,12.98,22.41,33.4,39.52,46.99Z"/>
  <path class="cls-4" d="M188.88,170.88s9.76-15.44,13.25-16.31h106.03l-8.59,16.31h-36.7s5.97,5.68,6.55,11.94h27.23l-8.88,15.29h-18.06s2.04,22.72-35.97,28.98c22.57,21.7,45.29,45.29,45.29,45.29,0,0-9.03,4.08-24.03,4.51-4.51-3.64-55.63-52.58-55.63-52.58v-13.11l32.48.44s14.42-1.75,15.87-12.96c-5.39-.15-58.84-.87-58.84-.87l10.19-15,49.44.15s-2.84-9.32-17.55-11.94c-15,.29-42.09-.15-42.09-.15Z"/>
  <path class="cls-3" d="M912.86,166.82c2.18-17.88-12.86-41.2,42.05-54.28,6.15,35.97-20.47,45.34-42.05,54.28Z"/>
  <path class="cls-1" d="M415.6,224.59c-3.72,7.63-11.7,12.24-21.28,12.24-14.19,0-24.83-10.28-24.83-25.18s10.64-25.18,24.83-25.18c9.41,0,17.28,4.46,21.08,11.86l17.69-13.78c-8.05-11.71-21.74-19.53-38.77-19.53-27.66,0-47.88,19.51-47.88,46.64s20.22,46.64,47.88,46.64c16.95,0,30.59-7.75,38.66-19.37l-17.38-14.32Z"/>
</svg>